<?xml version="1.0" standalone="no"?>
<!DOCTYPE svg PUBLIC "-//W3C//DTD SVG 20010904//EN"
 "http://www.w3.org/TR/2001/REC-SVG-20010904/DTD/svg10.dtd">
<svg version="1.0" xmlns="http://www.w3.org/2000/svg"
 width="1024.000000pt" height="1024.000000pt" viewBox="0 0 1024.000000 1024.000000"
 preserveAspectRatio="xMidYMid meet">

<g transform="translate(0.000000,1024.000000) scale(0.100000,-0.100000)"
fill="#000000" stroke="none">
<path d="M0 5120 l0 -5120 5120 0 5120 0 0 5120 0 5120 -5120 0 -5120 0 0
-5120z m1733 1646 c353 -68 594 -339 637 -716 12 -107 -2 -282 -31 -376 -48
-159 -147 -302 -272 -397 -87 -66 -145 -96 -257 -132 -75 -24 -101 -28 -225
-28 -105 -1 -158 4 -210 17 -209 55 -396 209 -493 409 -72 147 -87 218 -87
412 1 136 4 172 23 240 53 184 169 347 322 452 166 113 389 158 593 119z
m1553 -11 c266 -45 414 -218 414 -485 0 -144 -25 -222 -102 -322 -26 -33 -127
-109 -160 -120 -8 -3 11 -42 51 -109 229 -375 338 -559 333 -564 -3 -3 -94 -5
-203 -5 l-197 0 -68 118 c-37 64 -87 150 -111 189 -24 40 -43 75 -43 77 0 7
-81 149 -107 189 l-26 37 -114 0 -113 0 1 -287 c0 -159 0 -296 0 -305 -1 -16
-16 -18 -166 -18 l-165 0 0 810 0 810 344 0 c261 0 365 -4 432 -15z m1824 9
l35 -6 -3 -304 -3 -304 261 0 260 0 2 308 3 307 166 0 167 0 6 -44 c3 -24 6
-162 6 -307 l0 -264 235 0 235 0 2 308 3 307 159 3 c88 1 163 -1 168 -6 5 -5
9 -170 9 -368 0 -197 3 -454 8 -569 7 -203 8 -212 34 -260 49 -89 126 -127
257 -127 149 0 237 51 281 162 11 28 15 149 19 600 l5 565 135 3 c74 2 150 0
168 -3 l32 -6 0 -582 c0 -642 0 -641 -63 -767 -42 -84 -134 -178 -214 -219
-118 -59 -200 -76 -368 -75 -234 1 -353 41 -470 160 -105 106 -149 221 -161
424 l-7 120 -236 0 -236 0 0 -332 0 -333 -90 -3 c-49 -2 -127 0 -172 3 l-83 7
0 329 0 329 -62 0 c-58 1 -61 2 -44 15 16 12 17 15 4 15 -8 0 -21 -7 -28 -15
-10 -12 -37 -15 -122 -15 l-110 0 2 38 c1 20 2 43 1 50 -2 20 -21 3 -21 -18 0
-10 -12 -41 -26 -68 -23 -45 -29 -50 -59 -50 -44 0 -55 -8 -55 -38 0 -29 7
-30 35 -4 11 10 34 20 50 21 50 4 119 -1 112 -7 -6 -6 -69 -14 -111 -15 -24 0
-78 -38 -71 -49 3 -5 1 -12 -5 -15 -7 -4 -10 -62 -9 -166 1 -87 6 -156 10
-153 15 9 18 -13 7 -57 -18 -78 -58 -147 -77 -134 -7 4 -11 -5 -11 -24 0 -26
-4 -31 -25 -31 -18 0 -23 -4 -19 -15 4 -8 1 -15 -4 -15 -6 0 -12 19 -14 43 -3
40 -4 42 -39 45 -32 3 -37 7 -52 50 -10 26 -17 57 -17 68 0 35 -39 150 -59
175 -17 21 -17 24 -3 35 14 10 17 37 18 168 1 95 -3 159 -9 163 -5 3 -70 5
-144 4 -129 -1 -135 0 -153 21 l-19 23 -1 -22 c0 -22 -3 -23 -147 -25 l-147
-3 3 -165 c1 -91 5 -167 8 -170 2 -3 116 -6 251 -6 195 -1 241 1 220 10 -22 9
-78 66 -66 66 12 0 88 -45 121 -71 27 -22 35 -34 27 -39 -8 -5 -9 -10 -2 -14
24 -15 67 -106 77 -166 17 -100 17 -100 -78 -101 -45 -1 -101 -1 -124 1 -26 1
-43 -3 -43 -9 0 -6 15 -42 34 -79 45 -91 51 -123 30 -164 -9 -18 -19 -27 -21
-20 -9 26 -23 10 -23 -27 0 -21 -6 -44 -14 -50 -12 -10 -15 -5 -21 29 -4 22
-9 40 -12 40 -9 0 -33 -29 -33 -39 0 -6 -4 -11 -10 -11 -5 0 -10 13 -10 28 0
36 -53 118 -81 125 -16 4 -19 11 -14 26 8 27 -3 27 -27 -1 -29 -34 -19 -52 31
-58 l44 -5 23 -65 c13 -36 23 -75 24 -88 0 -13 4 -21 9 -18 5 4 1 -11 -9 -31
-9 -21 -21 -48 -24 -61 -7 -20 -5 -21 18 -12 14 5 43 18 65 30 l40 20 43 -23
c34 -17 44 -28 46 -52 3 -25 -4 -37 -41 -70 -75 -67 -132 -135 -113 -135 9 0
16 7 16 16 0 10 5 14 16 10 8 -3 13 -2 10 3 -8 13 28 41 42 32 9 -6 10 -15 1
-40 -11 -31 -10 -35 25 -65 20 -18 36 -37 36 -42 1 -18 37 -52 78 -73 54 -28
60 -40 31 -63 -13 -10 -30 -23 -37 -29 -17 -14 -33 -2 -25 18 5 13 2 15 -15
11 -19 -5 -22 -2 -22 22 0 17 -7 33 -17 39 -15 9 -15 12 -4 20 11 7 10 13 -4
35 -10 14 -22 26 -29 25 -6 0 -5 -3 3 -6 10 -4 10 -7 1 -13 -10 -6 -9 -18 5
-55 17 -44 17 -49 1 -100 -9 -31 -26 -59 -39 -67 -30 -20 -100 -30 -129 -19
-22 9 -67 71 -51 71 10 0 43 57 43 76 0 8 10 14 23 14 21 1 20 2 -5 16 -33 17
-35 34 -8 59 11 10 17 22 14 27 -3 5 -15 1 -26 -8 -19 -18 -19 -17 -14 9 3 15
0 27 -6 27 -7 0 -7 4 0 13 6 7 7 18 3 25 -10 17 -24 0 -42 -53 l-14 -40 -3 33
c-2 18 6 58 17 90 20 55 20 56 2 34 -18 -21 -20 -21 -30 -5 -9 16 -10 16 -11
-4 0 -13 -5 -23 -10 -23 -7 0 -9 -21 -4 -62 5 -45 14 -69 31 -87 29 -32 31
-61 3 -54 -11 3 -20 0 -20 -6 0 -6 -7 -11 -15 -11 -8 0 -15 -4 -15 -10 0 -5 7
-10 15 -10 8 0 15 5 15 10 0 6 5 10 10 10 18 0 10 -18 -21 -49 -17 -17 -39
-31 -50 -31 -11 0 -34 -7 -52 -16 -21 -11 -28 -12 -19 -3 20 22 14 32 -17 26
-19 -4 -31 -2 -34 6 -3 9 -8 9 -20 -2 -10 -7 -17 -9 -17 -3 0 5 7 12 15 16 27
10 16 22 -34 35 -36 9 -55 10 -68 2 -10 -6 -12 -11 -5 -11 6 0 12 -7 12 -15 0
-18 17 -20 22 -3 2 6 10 8 17 4 9 -6 6 -13 -10 -27 -22 -19 -22 -19 -1 -19 11
0 22 6 25 13 2 6 7 9 11 6 10 -9 -63 -79 -93 -90 -13 -5 -21 -12 -18 -15 3 -3
15 -1 26 6 12 6 26 8 31 5 6 -3 10 -1 10 5 0 6 4 9 9 6 5 -3 14 1 21 9 7 9 21
13 31 10 12 -4 19 1 24 15 4 12 11 20 17 18 14 -5 12 -11 -22 -78 -39 -78 -24
-78 18 0 34 62 58 79 50 35 -3 -14 -1 -25 3 -25 5 0 6 -7 3 -15 -4 -8 -1 -15
5 -15 6 0 11 5 11 10 0 6 6 10 14 10 8 0 16 4 18 8 2 5 21 15 43 24 31 12 41
22 43 42 2 14 10 26 17 26 11 0 12 -6 6 -22 -11 -32 -7 -40 76 -151 79 -107
94 -120 38 -33 -19 30 -35 58 -35 61 0 12 26 3 58 -22 26 -19 34 -22 29 -10
-4 11 -1 17 8 17 8 0 15 5 15 10 0 6 15 10 33 10 l32 1 -30 24 c-23 19 -26 25
-12 25 9 0 17 -4 17 -10 0 -6 28 -10 65 -10 53 0 63 3 59 15 -5 11 1 15 19 15
29 0 77 -54 77 -86 0 -11 -30 -46 -69 -81 -69 -62 -69 -62 -127 -61 -37 0 -66
7 -77 16 -29 25 -28 9 3 -40 16 -26 41 -75 56 -110 31 -75 32 -77 44 -58 8 13
10 12 10 -2 0 -9 -4 -20 -10 -23 -17 -10 -11 -23 13 -29 13 -3 40 -16 59 -30
20 -13 39 -22 42 -18 3 3 6 50 6 104 l0 98 30 0 c20 0 30 -5 30 -15 0 -8 9
-15 20 -15 11 0 20 5 20 11 0 6 12 1 26 -10 24 -19 28 -19 55 -5 17 8 29 23
29 34 0 10 4 22 10 25 6 3 10 19 10 36 0 16 5 29 10 29 6 0 10 -9 10 -20 0
-32 32 -89 49 -88 42 3 57 -4 69 -32 13 -29 37 -34 25 -5 -4 11 2 15 21 15 21
0 26 5 26 25 0 19 5 25 20 25 25 0 53 -25 120 -109 51 -65 70 -82 103 -94 14
-5 10 8 -19 61 -41 73 -49 82 -112 113 -39 19 -62 49 -62 81 0 6 13 8 36 4 42
-8 104 10 104 30 0 8 6 14 13 14 8 0 8 3 -2 9 -8 5 -20 7 -28 4 -13 -5 -43 13
-43 27 0 4 11 12 25 18 14 6 22 17 20 24 -3 8 9 22 27 33 56 32 61 41 33 59
-17 11 -26 29 -30 60 -6 38 -11 45 -36 50 -32 6 -39 32 -11 39 10 3 5 5 -12 6
l-28 1 21 18 c21 16 21 18 5 50 -22 45 -9 57 47 42 24 -6 53 -17 64 -24 16
-10 74 -23 125 -28 3 -1 30 -7 60 -14 74 -17 76 -9 4 12 -51 15 -56 18 -34 24
14 4 -4 6 -40 4 -97 -4 -109 12 -16 21 71 7 93 6 186 -11 26 -4 31 -3 20 5 -8
6 -28 11 -45 12 -29 1 -30 1 -5 9 15 5 -28 9 -115 10 -77 1 -134 4 -127 7 6 2
12 10 12 16 0 7 8 17 19 22 10 6 42 23 70 38 28 15 56 25 60 22 5 -2 11 1 14
9 5 11 0 12 -21 6 -15 -5 -48 -16 -74 -24 l-48 -15 0 27 c0 36 28 115 44 124
16 9 70 87 65 93 -10 10 -133 -124 -150 -162 -17 -41 -20 -42 -45 -33 -21 8
-37 7 -67 -5 -51 -20 -58 -12 -21 26 19 19 23 28 11 23 -9 -3 -33 -30 -52 -59
-36 -54 -62 -70 -86 -54 -11 8 -9 13 9 28 12 11 22 27 22 38 1 10 23 36 50 58
49 40 59 56 22 36 -46 -25 -71 28 -36 77 15 22 11 47 -7 37 -14 -9 -11 1 11
42 11 20 18 39 16 41 -3 2 -26 -6 -51 -17 -26 -12 -59 -21 -74 -21 -14 0 -35
-7 -45 -15 -40 -30 -44 -23 -45 65 0 143 2 150 31 150 17 0 33 -9 43 -22 13
-19 30 -25 104 -33 l89 -10 -19 -39 c-10 -22 -19 -41 -19 -42 0 -7 77 48 105
74 17 16 52 40 80 53 27 13 56 31 65 41 8 9 25 19 37 23 36 10 18 -20 -22 -39
-34 -17 -54 -36 -37 -36 5 0 29 7 53 15 64 23 74 9 71 -105 -2 -49 0 -90 4
-90 3 0 19 10 36 23 74 56 116 99 124 129 l10 33 134 6 c114 5 142 9 178 28
23 13 48 31 55 40 6 9 19 15 27 15 8 -1 24 -2 35 -3 17 -1 18 -3 5 -14 -16
-13 -40 -52 -40 -64 0 -5 127 -8 282 -8 l283 0 3 -147 3 -148 -181 0 c-144 0
-180 -3 -180 -13 0 -20 -51 -42 -61 -26 -5 9 -24 4 -70 -17 l-62 -29 49 -11
c27 -7 80 -28 117 -48 38 -20 77 -36 88 -36 10 0 19 -4 19 -10 0 -5 -6 -10
-12 -10 -64 0 -185 -23 -231 -44 -56 -25 -75 -39 -38 -29 10 2 41 -2 68 -10
31 -9 55 -12 64 -6 8 5 26 9 42 9 15 0 27 4 27 9 0 13 54 28 127 36 75 8 90 2
69 -30 l-16 -24 58 -3 57 -3 3 -154 3 -153 -281 4 c-154 2 -280 1 -280 -3 0
-3 8 -17 19 -30 10 -13 32 -51 50 -84 17 -33 40 -76 51 -95 20 -35 28 -86 11
-76 -5 4 -11 2 -13 -4 -2 -7 -32 -4 -86 6 -85 17 -99 16 -89 -11 7 -16 -20
-15 447 -18 l225 -2 0 -140 0 -140 -272 -3 -272 -2 10 -32 c7 -27 5 -37 -16
-64 -14 -18 -25 -37 -25 -42 0 -23 -83 -102 -118 -112 -60 -16 -75 -13 -69 13
3 12 8 32 11 44 7 34 37 84 70 120 16 18 31 42 33 53 3 19 -3 20 -172 20
l-175 0 0 75 c0 41 -4 75 -8 75 -4 0 -24 -16 -43 -36 -57 -60 -129 -114 -154
-114 -14 0 -39 18 -69 50 -26 28 -50 50 -54 50 -3 0 21 -28 55 -62 72 -75 90
-108 99 -182 8 -63 -4 -69 -41 -20 -10 14 -27 35 -37 46 -11 13 -18 37 -18 60
0 30 -8 47 -37 80 -21 24 -38 44 -38 45 0 1 -11 4 -25 8 -20 5 -28 1 -42 -23
-26 -43 -72 -52 -271 -52 -274 0 -372 27 -437 119 -35 48 -40 53 -40 31 0 -14
6 -34 13 -45 7 -11 13 -31 13 -45 -1 -43 -38 -37 -108 17 -83 64 -93 70 -85
51 10 -27 -21 -59 -49 -52 -17 4 -24 2 -24 -8 0 -7 -11 -30 -25 -50 -21 -30
-33 -38 -71 -44 -27 -4 -55 -2 -67 4 -12 6 -41 14 -64 17 -50 8 -104 41 -118
73 -8 18 -18 22 -57 22 -36 0 -48 4 -48 15 0 9 -7 18 -15 21 -8 4 -13 10 -10
15 3 4 -17 6 -44 2 -42 -5 -52 -2 -67 16 -10 11 -22 21 -27 21 -5 0 -34 -22
-64 -49 -50 -45 -58 -48 -94 -44 -26 4 -47 0 -63 -11 -31 -20 -36 -12 -43 65
-3 32 -10 59 -15 59 -15 0 -27 47 -19 76 5 21 23 37 73 63 36 20 73 42 82 50
13 11 16 11 16 0 0 -7 7 -3 16 9 9 13 13 29 11 37 -3 7 0 15 6 18 9 3 12 -6
10 -32 l-2 -36 10 35 c6 19 15 43 20 53 6 11 6 17 -1 17 -5 0 -10 -6 -10 -12
0 -9 -3 -9 -9 1 -8 12 -12 12 -25 2 -9 -8 -16 -20 -16 -28 0 -8 -4 -12 -9 -9
-5 3 -30 -6 -56 -20 -26 -14 -54 -23 -61 -20 -13 5 -85 -14 -94 -24 -3 -4 -27
-19 -55 -34 -27 -15 -60 -41 -72 -59 -20 -28 -23 -29 -23 -10 0 12 5 25 10 28
20 12 9 25 -20 25 -16 0 -30 4 -30 9 0 13 86 90 116 103 21 10 24 16 19 37
-10 37 -10 73 -2 97 7 21 7 21 -38 6 -39 -13 -53 -13 -88 -2 -23 8 -46 17 -52
22 -5 4 -16 8 -25 8 -8 0 -40 16 -70 35 -30 19 -66 35 -82 35 -32 0 -51 26
-37 52 14 26 5 22 -33 -13 -18 -17 -52 -44 -75 -59 -39 -25 -41 -28 -29 -51
38 -74 71 -121 97 -140 16 -11 27 -25 24 -30 -4 -5 12 -9 35 -9 34 0 42 -4 50
-26 6 -14 10 -36 10 -50 0 -13 6 -33 12 -44 10 -15 10 -22 0 -32 -9 -9 -12 -8
-12 6 0 20 -28 52 -37 42 -3 -3 5 -23 19 -43 14 -21 45 -71 69 -112 24 -41 54
-90 66 -110 38 -62 39 -61 -136 -61 -177 0 -220 5 -229 29 -3 9 -30 55 -59
104 -29 48 -91 154 -136 235 -46 81 -90 157 -98 170 -13 20 -21 22 -111 22
l-98 0 -1 -42 c-1 -24 0 -150 1 -280 l2 -238 -109 0 c-59 0 -132 3 -160 6
l-53 7 0 744 0 745 368 -5 c309 -3 377 -7 427 -21 109 -32 189 -97 246 -201
18 -33 39 -65 47 -71 12 -9 12 -12 -1 -22 -13 -11 -13 -17 1 -45 14 -25 17
-57 15 -151 -2 -118 -2 -118 20 -112 12 4 43 9 68 13 40 5 47 9 47 29 0 14 -8
26 -19 29 -28 9 -23 35 10 46 23 8 31 18 36 47 4 20 16 43 27 50 12 9 16 17 9
21 -5 4 -8 17 -4 30 4 18 11 22 29 18 13 -2 24 -1 24 3 0 4 18 12 40 19 45 13
47 17 24 49 -9 13 -13 26 -10 29 3 3 0 13 -6 20 -26 31 -49 117 -42 158 11 70
18 76 82 74 31 -1 96 3 144 10 75 11 95 10 145 -4 83 -23 155 -35 174 -30 24
8 91 -23 116 -53 22 -27 22 -27 23 -4 0 12 4 30 9 40 5 9 14 35 21 57 7 22 15
46 17 53 3 6 -2 12 -11 12 -13 0 -12 4 5 21 12 12 27 18 37 14 13 -5 14 -8 3
-14 -10 -6 -4 -11 19 -16 25 -6 35 -3 42 9 5 9 21 16 36 16 15 0 50 12 77 25
28 14 57 25 67 25 9 0 21 12 26 28 5 15 13 35 17 45 7 16 -9 17 -241 17 -249
-1 -249 -1 -225 -20 l23 -20 -37 0 c-32 0 -37 3 -32 19 4 17 -1 20 -42 23
l-46 3 -3 795 c-1 437 0 801 3 808 3 10 128 12 592 12 324 0 604 -3 623 -6z
m3308 -350 l178 -356 177 356 177 357 157 -3 158 -3 3 -802 2 -803 -26 -6
c-26 -7 -291 0 -298 7 -2 2 -7 209 -11 459 l-8 455 -24 -50 c-13 -28 -63 -133
-111 -235 -49 -102 -110 -231 -137 -287 -26 -57 -51 -103 -55 -103 -7 0 -51
88 -231 459 l-104 214 -5 -459 -5 -459 -95 -3 c-52 -2 -128 0 -167 3 l-73 7 0
804 0 804 160 0 160 0 178 -356z m-3688 -618 c0 -10 -15 -14 -62 -13 -35 0
-48 2 -30 4 17 2 32 8 32 14 0 5 14 9 30 9 19 0 30 -5 30 -14z m88 -3 c-10 -2
-28 -2 -40 0 -13 2 -5 4 17 4 22 1 32 -1 23 -4z m605 -28 c-19 -19 -32 -39
-28 -45 3 -5 2 -10 -4 -10 -14 0 -23 18 -11 22 6 2 13 17 15 33 2 17 4 31 4
33 1 1 14 2 30 2 l29 0 -35 -35z m-668 -25 c10 -11 16 -20 13 -20 -3 0 -13 9
-23 20 -10 11 -16 20 -13 20 3 0 13 -9 23 -20z m705 -10 c-1 -8 -38 -50 -44
-50 -4 0 -2 9 4 20 6 11 9 24 6 28 -2 4 4 8 15 8 10 0 19 -3 19 -6z m-690
-116 c0 -8 -4 -12 -10 -9 -5 3 -10 2 -10 -4 0 -6 -7 -8 -15 -5 -11 5 -12 9 -2
20 16 18 37 18 37 -2z m-182 -93 c3 -8 -1 -12 -9 -9 -7 2 -15 10 -17 17 -3 8
1 12 9 9 7 -2 15 -10 17 -17z m-1583 -399 c-3 -3 -11 0 -18 7 -9 10 -8 11 6 5
10 -3 15 -9 12 -12z m2072 -74 c-3 -8 -6 -5 -6 6 -1 11 2 17 5 13 3 -3 4 -12
1 -19z m1329 -33 c-19 -15 -46 -20 -46 -10 0 6 40 24 55 24 6 0 1 -6 -9 -14z
m-1352 -7 c-4 -6 -11 -25 -15 -42 -7 -28 -7 -27 -6 12 1 28 5 42 15 42 7 0 10
-5 6 -12z m-274 -100 c25 -28 30 -40 27 -78 -2 -37 -6 -46 -22 -48 -16 -2 -27
8 -43 39 -25 47 -29 89 -8 89 8 0 22 -10 30 -22 9 -12 16 -18 16 -12 0 6 -9
23 -21 38 -29 37 -15 33 21 -6z m151 -36 c-17 -6 -43 -62 -37 -78 4 -12 2 -12
-14 -4 -14 7 -20 7 -20 0 0 -5 -5 -10 -11 -10 -19 0 3 44 45 88 33 34 42 39
45 25 2 -9 -2 -19 -8 -21z m2947 23 c131 -27 354 -149 340 -187 -5 -11 -163
-245 -173 -256 -2 -2 -27 14 -57 36 -29 22 -84 55 -123 73 -61 29 -80 34 -150
34 -197 0 -336 -121 -381 -333 -18 -87 -18 -153 1 -244 22 -103 59 -173 130
-245 53 -53 71 -64 134 -83 141 -43 283 -15 406 80 54 41 65 47 65 31 0 -6 35
-65 77 -132 l77 -121 -28 -22 c-72 -54 -158 -99 -246 -128 -86 -29 -107 -32
-225 -32 -158 -1 -235 14 -335 65 -227 117 -359 316 -391 593 -18 159 11 355
72 482 42 90 134 201 215 262 161 121 382 168 592 127z m-6326 -19 c218 -39
349 -172 380 -385 33 -223 -57 -410 -235 -495 -104 -49 -158 -58 -360 -61
l-182 -2 -3 -263 c-1 -156 -6 -266 -12 -270 -5 -3 -31 -6 -57 -5 -27 0 -94 2
-150 3 l-103 2 0 745 0 745 323 0 c228 -1 345 -5 399 -14z m3498 5 c0 -5 -7
-14 -15 -21 -8 -7 -15 -19 -15 -26 0 -8 -4 -14 -9 -14 -11 0 -24 48 -16 60 8
12 55 13 55 1z m60 0 c0 -5 -7 -11 -15 -15 -9 -3 -15 0 -15 9 0 8 7 15 15 15
8 0 15 -4 15 -9z m4248 -143 l3 -148 -191 0 -190 0 0 -600 0 -600 -114 0 c-62
0 -134 3 -160 6 l-46 7 -2 591 -3 591 -192 3 -193 2 0 150 0 150 543 -2 542
-3 3 -147z m-4411 59 c-15 -25 -36 -47 -47 -50 -23 -6 -27 8 -4 17 8 3 24 27
35 52 15 32 24 43 31 36 7 -7 3 -24 -15 -55z m-547 -647 c-10 -19 -30 -28 -30
-14 0 6 30 33 38 34 1 0 -2 -9 -8 -20z m-196 -15 c-4 -8 -10 -15 -14 -15 -5 0
-17 -3 -27 -7 -12 -4 -10 0 7 15 30 25 42 28 34 7z m311 -95 c3 -5 1 -10 -4
-10 -6 0 -11 5 -11 10 0 6 2 10 4 10 3 0 8 -4 11 -10z m-909 -285 c-11 -8 -17
-18 -13 -21 13 -13 -31 -33 -67 -32 -42 1 -58 17 -27 25 12 3 21 9 21 14 0 13
39 28 75 28 28 0 29 0 11 -14z m1134 -65 c0 -5 -4 -10 -10 -10 -5 0 -10 5 -10
10 0 6 5 10 10 10 6 0 10 -4 10 -10z m-1530 -61 c0 -5 -4 -9 -10 -9 -5 0 -10
7 -10 16 0 8 5 12 10 9 6 -3 10 -10 10 -16z m-325 -309 c-3 -5 -14 -10 -23
-10 -15 0 -15 2 -2 10 20 13 33 13 25 0z m2855 -31 c0 -5 -4 -9 -10 -9 -5 0
-10 7 -10 16 0 8 5 12 10 9 6 -3 10 -10 10 -16z m159 -55 c3 -4 -5 -4 -19 -1
-14 4 -31 7 -37 7 -7 0 -13 4 -13 9 0 10 58 -3 69 -15z m-102 1 c-1 -5 3 -9
10 -10 7 0 18 -6 25 -14 11 -12 10 -13 -7 -6 -11 4 -35 13 -52 19 -41 14 -42
21 -4 21 16 0 29 -4 28 -10z m79 -62 c-7 -7 -26 7 -26 19 0 6 6 6 15 -2 9 -7
13 -15 11 -17z m-2096 -97 c0 -2 -8 -10 -17 -17 -16 -13 -17 -12 -4 4 13 16
21 21 21 13z"/>
<path d="M1449 6426 c-137 -52 -222 -137 -270 -271 -19 -50 -23 -82 -23 -195
-1 -141 9 -189 58 -285 31 -62 136 -162 203 -193 52 -24 70 -27 163 -27 98 0
109 2 177 34 163 76 253 235 253 446 -1 232 -86 387 -258 468 -60 29 -78 32
-167 34 -65 2 -112 -2 -136 -11z"/>
<path d="M2846 6282 c0 -86 2 -168 2 -180 l2 -24 183 4 c177 3 183 4 228 30
56 33 79 76 79 151 0 71 -28 113 -99 150 -53 26 -59 27 -225 27 l-171 0 1
-158z"/>
<path d="M5061 6528 c-13 -35 -32 -81 -42 -104 -21 -46 -24 -58 -10 -49 11 6
66 119 74 150 3 11 8 30 12 43 3 12 3 22 -2 22 -5 0 -19 -28 -32 -62z"/>
<path d="M4920 6501 c0 -5 5 -13 10 -16 6 -3 10 -2 10 4 0 5 -4 13 -10 16 -5
3 -10 2 -10 -4z"/>
<path d="M4240 6435 c0 -3 -1 -69 -1 -147 l0 -143 306 0 307 0 0 70 c0 39 -1
105 -1 148 l-1 77 -305 0 c-168 0 -305 -2 -305 -5z"/>
<path d="M4985 6333 c-4 -10 -9 -33 -12 -52 -4 -39 -29 -91 -43 -91 -6 0 -10
-25 -10 -55 0 -30 -4 -55 -10 -55 -5 0 -10 -15 -10 -32 0 -18 -7 -60 -15 -93
-18 -76 -19 -118 -2 -113 6 3 13 15 15 29 2 13 9 38 17 54 7 17 22 50 33 75
14 30 22 76 26 140 3 52 10 119 16 149 10 56 8 76 -5 44z"/>
<path d="M5163 5813 c-12 -2 -27 -11 -33 -18 -12 -15 -3 -13 90 18 18 6 -26 6
-57 0z"/>
<path d="M4895 5772 c-11 -11 -4 -24 9 -19 8 3 17 1 20 -6 2 -7 5 -3 5 9 1 19
-21 29 -34 16z"/>
<path d="M4913 5570 c0 -25 2 -35 4 -22 2 12 2 32 0 45 -2 12 -4 2 -4 -23z"/>
<path d="M4281 4924 c-7 -8 -11 -17 -9 -20 3 -2 13 5 23 16 10 11 14 20 9 20
-5 -1 -15 -8 -23 -16z"/>
<path d="M5835 4726 c-9 -14 -25 -28 -36 -31 -17 -6 -16 -8 10 -31 16 -13 33
-24 38 -24 5 0 9 -10 9 -22 -1 -17 5 -24 22 -26 12 -2 22 1 22 6 0 6 14 15 30
21 41 14 38 37 -5 45 -20 4 -39 5 -44 2 -4 -3 -16 1 -27 8 -16 12 -17 17 -6
41 17 36 8 44 -13 11z"/>
<path d="M4045 4720 c3 -5 0 -10 -7 -11 -12 0 48 -27 65 -28 5 -1 -5 10 -21
24 -31 26 -48 33 -37 15z"/>
<path d="M6495 4670 c-3 -5 -1 -10 4 -10 6 0 11 5 11 10 0 6 -2 10 -4 10 -3 0
-8 -4 -11 -10z"/>
<path d="M5458 4596 c-23 -29 -25 -33 -8 -29 25 7 42 28 38 48 -2 11 -10 6
-30 -19z"/>
<path d="M2418 4594 c-5 -4 -8 -88 -8 -186 l0 -178 104 0 c78 0 111 4 133 16
27 16 83 94 83 117 0 7 7 21 15 31 8 11 15 28 15 39 0 21 16 40 44 50 15 6 17
13 11 40 -4 17 -7 37 -8 44 0 8 -8 8 -25 2 -14 -5 -27 -7 -30 -5 -2 3 -21 -1
-41 -9 -36 -15 -36 -15 -14 4 21 17 21 20 5 26 -24 11 -276 19 -284 9z m90
-173 c3 -8 -1 -12 -9 -9 -7 2 -15 10 -17 17 -3 8 1 12 9 9 7 -2 15 -10 17 -17z
m46 -20 c17 -19 17 -20 -6 -32 -13 -6 -26 -16 -29 -21 -4 -6 -16 4 -28 21 -25
34 -19 43 7 11 12 -14 21 -17 32 -10 12 7 12 12 2 22 -6 6 -12 16 -12 20 0 14
16 9 34 -11z m161 0 c-2 -34 -46 -71 -85 -71 -19 0 -42 5 -50 10 -13 9 -13 11
0 20 8 6 27 8 43 6 18 -4 27 -1 27 7 0 8 15 21 33 30 17 8 32 16 33 16 0 1 0
-8 -1 -18z"/>
<path d="M4250 4576 c0 -13 62 -126 69 -126 4 0 7 15 8 34 1 23 -3 33 -11 30
-7 -3 -24 12 -39 33 -15 21 -27 34 -27 29z"/>
<path d="M6305 4560 c-3 -6 1 -7 9 -4 18 7 21 14 7 14 -6 0 -13 -4 -16 -10z"/>
<path d="M3525 4504 c22 -16 35 -18 35 -5 0 5 8 11 18 13 9 3 -3 5 -27 5 -40
0 -43 -1 -26 -13z"/>
<path d="M3608 4503 c6 -2 18 -2 25 0 6 3 1 5 -13 5 -14 0 -19 -2 -12 -5z"/>
<path d="M3850 4444 c30 -38 174 -124 204 -123 17 1 17 2 4 6 -10 2 -18 9 -18
15 0 6 -3 8 -6 5 -10 -10 -116 49 -166 92 -42 35 -42 35 -18 5z"/>
<path d="M4076 4461 c-3 -5 1 -11 9 -15 8 -3 15 -1 15 4 0 13 -18 22 -24 11z"/>
<path d="M4282 4416 c3 -14 2 -23 -2 -21 -4 3 -14 -2 -21 -11 -8 -10 -21 -13
-36 -9 -16 4 -23 1 -23 -9 0 -8 -15 -18 -32 -22 l-33 -8 45 -6 45 -6 -27 -14
c-16 -7 -28 -17 -28 -22 0 -5 5 -6 10 -3 18 11 11 -17 -7 -31 -24 -17 -13 -25
25 -18 26 5 29 9 20 23 -8 14 -6 23 12 44 18 20 26 24 32 15 6 -10 8 -10 8 1
0 10 9 12 37 6 l36 -7 -17 27 c-17 26 -17 26 3 15 12 -6 21 -20 21 -32 0 -29
12 -15 16 17 3 27 -23 68 -38 59 -4 -3 -8 -1 -8 3 0 5 -10 14 -21 22 -20 12
-21 11 -17 -13z"/>
<path d="M4360 4415 c0 -14 2 -25 4 -25 2 0 6 11 8 25 3 14 1 25 -3 25 -5 0
-9 -11 -9 -25z"/>
<path d="M3650 4416 c0 -2 7 -7 16 -10 8 -3 12 -2 9 4 -6 10 -25 14 -25 6z"/>
<path d="M3735 4376 c11 -8 25 -19 31 -25 6 -5 32 -6 59 -4 40 5 44 8 29 16
-11 6 -35 12 -54 12 -19 1 -46 5 -60 9 -24 7 -24 7 -5 -8z"/>
<path d="M3715 4325 c-25 -12 -26 -14 -5 -9 28 7 60 23 45 23 -5 0 -23 -6 -40
-14z"/>
<path d="M3476 4300 c12 -12 28 -20 35 -18 9 3 0 12 -21 22 l-35 18 21 -22z"/>
<path d="M4115 4310 c11 -5 27 -9 35 -9 13 -1 13 0 0 9 -8 5 -24 9 -35 9 l-20
0 20 -9z"/>
<path d="M4380 4300 c0 -5 5 -10 11 -10 5 0 7 5 4 10 -3 6 -8 10 -11 10 -2 0
-4 -4 -4 -10z"/>
<path d="M3406 4286 c10 -8 21 -12 24 -10 5 6 -21 24 -34 24 -6 0 -1 -6 10
-14z"/>
<path d="M4280 4290 c-8 -5 -11 -12 -7 -16 4 -4 13 -2 19 4 15 15 7 24 -12 12z"/>
<path d="M6650 4290 c0 -5 5 -10 10 -10 6 0 10 5 10 10 0 6 -4 10 -10 10 -5 0
-10 -4 -10 -10z"/>
<path d="M3565 4280 c-7 -12 22 -12 50 0 17 7 15 9 -12 9 -17 1 -35 -3 -38 -9z"/>
<path d="M3998 4283 c12 -2 30 -2 40 0 9 3 -1 5 -23 4 -22 0 -30 -2 -17 -4z"/>
<path d="M4118 4283 c6 -2 18 -2 25 0 6 3 1 5 -13 5 -14 0 -19 -2 -12 -5z"/>
<path d="M6030 4260 c17 -11 109 -10 116 2 3 4 -25 8 -63 8 -45 0 -63 -3 -53
-10z"/>
<path d="M3466 4249 c5 -9 -1 -10 -20 -5 -18 4 -25 3 -21 -4 3 -5 23 -9 45 -8
32 1 36 3 25 15 -17 16 -39 17 -29 2z"/>
<path d="M3795 4223 c-59 -41 -61 -43 -49 -43 5 0 33 18 63 40 65 49 55 52
-14 3z"/>
<path d="M4276 4235 c4 -9 0 -15 -9 -15 -8 0 -17 -9 -20 -20 -6 -24 5 -25 38
-4 20 13 23 20 14 35 -12 22 -31 26 -23 4z"/>
<path d="M4367 4243 c-4 -3 -7 -15 -7 -25 0 -10 -5 -18 -12 -18 -9 0 -9 -3 0
-12 15 -15 22 -7 27 31 4 32 3 36 -8 24z"/>
<path d="M5497 4209 c7 -7 15 -10 18 -7 3 3 -2 9 -12 12 -14 6 -15 5 -6 -5z"/>
<path d="M5620 4206 c0 -2 8 -10 18 -17 15 -13 16 -12 3 4 -13 16 -21 21 -21
13z"/>
<path d="M5970 4180 c0 -11 2 -20 4 -20 2 0 6 9 9 20 3 11 1 20 -4 20 -5 0 -9
-9 -9 -20z"/>
<path d="M4310 4181 c0 -6 5 -13 10 -16 6 -3 10 1 10 9 0 9 -4 16 -10 16 -5 0
-10 -4 -10 -9z"/>
<path d="M5540 4182 c0 -5 7 -13 16 -16 10 -4 14 -1 12 6 -5 15 -28 23 -28 10z"/>
<path d="M3725 4159 c-4 -6 -5 -12 -2 -15 2 -3 7 2 10 11 7 17 1 20 -8 4z"/>
<path d="M5666 4115 c13 -33 174 -118 191 -101 3 3 0 8 -8 10 -8 2 -30 10 -51
16 -20 6 -57 29 -81 50 -48 43 -60 48 -51 25z"/>
<path d="M3451 4101 c-10 -6 -9 -10 5 -15 20 -8 25 -4 16 11 -4 7 -13 9 -21 4z"/>
<path d="M6405 4100 c-3 -6 1 -7 9 -4 18 7 21 14 7 14 -6 0 -13 -4 -16 -10z"/>
<path d="M3343 4083 c9 -2 23 -2 30 0 6 3 -1 5 -18 5 -16 0 -22 -2 -12 -5z"/>
<path d="M5684 4018 c2 -36 0 -70 -5 -75 -9 -9 2 -92 27 -200 19 -83 18 -112
-5 -131 -21 -19 -37 -72 -21 -72 6 0 8 -16 3 -42 -5 -38 -4 -42 9 -30 21 17
83 147 107 227 22 71 27 140 12 150 -6 3 -30 35 -55 71 -44 62 -58 92 -36 79
6 -3 10 -2 10 4 0 5 -5 11 -12 13 -6 2 -18 20 -25 39 -13 33 -13 32 -9 -33z
m26 -437 c-16 -31 -32 -36 -18 -7 6 14 15 26 20 26 5 0 4 -9 -2 -19z"/>
<path d="M3872 3958 c-23 -18 -41 -39 -41 -46 -1 -7 19 6 44 30 25 24 45 44
45 46 0 6 -11 -1 -48 -30z"/>
<path d="M4176 3975 c-9 -26 -7 -32 5 -12 6 10 9 21 6 23 -2 3 -7 -2 -11 -11z"/>
<path d="M3752 3964 c10 -10 20 -15 24 -12 3 4 -5 12 -18 18 -22 12 -22 12 -6
-6z"/>
<path d="M4280 3878 c0 -27 4 -38 15 -38 19 0 19 17 0 50 l-14 25 -1 -37z"/>
<path d="M4312 3810 c-14 -24 -16 -40 -2 -40 5 0 7 6 4 14 -3 8 -1 17 5 21 6
3 11 -2 12 -12 0 -10 3 -13 5 -6 3 7 2 19 -3 27 -7 13 -10 13 -21 -4z"/>
<path d="M6251 3793 c7 -12 15 -20 18 -17 3 2 -3 12 -13 22 -17 16 -18 16 -5
-5z"/>
<path d="M3771 3744 c0 -11 3 -14 6 -6 3 7 2 16 -1 19 -3 4 -6 -2 -5 -13z"/>
<path d="M5490 3718 c0 -10 4 -18 9 -18 5 0 11 -9 14 -20 3 -11 10 -20 16 -20
13 0 4 20 -23 55 -14 18 -15 18 -16 3z"/>
<path d="M3821 3619 c-22 -18 -22 -19 -3 -19 11 0 23 7 26 16 9 24 4 25 -23 3z"/>
<path d="M1173 4592 c-23 -3 -23 -4 -23 -182 l0 -178 87 -7 c103 -9 220 -1
266 19 47 19 85 68 93 121 14 95 -18 160 -98 199 -48 23 -67 27 -178 29 -69 1
-135 1 -147 -1z"/>
</g>
</svg>
